<svg width="663" height="328" viewBox="0 0 663 328" fill="none" xmlns="http://www.w3.org/2000/svg">
<path d="M39.4608 79.7095V79.2095H38.9608H0.5V44.4766C19.7686 44.3968 31.6864 39.6961 39.7579 32.263C47.796 24.8607 51.9521 14.8041 55.8125 4.16478H88.8807V323.835H39.4608V79.7095ZM248.696 184.156L247.745 183.942C243.426 193.029 237.413 200.051 229.714 204.804C222.014 209.557 212.597 212.059 201.443 212.059C183.01 212.059 169.19 205.584 159.96 193.304C150.712 181 146.023 162.801 146.023 139.263V80.6257C146.023 55.0556 152.761 35.0381 165.596 21.4155C178.427 7.79756 197.417 0.5 222.07 0.5C246.722 0.5 265.712 7.79756 278.543 21.4155C291.378 35.0381 298.116 55.0556 298.116 80.6257V244.626C298.116 271.587 291.943 292.289 279.337 306.249C266.741 320.199 247.645 327.5 221.611 327.5C196.96 327.5 178.316 320.203 165.83 306.589C153.337 292.969 146.94 272.951 146.94 247.374V239.628H193.609V250.581C193.609 262.096 196.143 270.141 200.785 275.309C205.437 280.488 212.126 282.69 220.236 282.69C229.252 282.69 236.423 280.493 241.312 274.312C246.175 268.163 248.696 258.171 248.696 242.793V184.156ZM452.147 154.859L451.364 155.293L452.145 155.732C473.921 167.974 483.058 191.573 483.058 222.179V247.374C483.058 272.94 476.093 292.956 462.86 306.579C449.628 320.2 430.063 327.5 404.72 327.5C379.376 327.5 359.811 320.2 346.58 306.579C333.347 292.956 326.381 272.94 326.381 247.374V222.179C326.381 191.573 335.519 167.974 357.295 155.732L358.084 155.289L357.289 154.857C336.422 143.522 326.381 122.204 326.381 90.7039V80.6257C326.381 55.0598 333.347 35.0442 346.58 21.421C359.811 7.80006 379.376 0.5 404.72 0.5C430.063 0.5 449.628 7.80006 462.86 21.421C476.093 35.0442 483.058 55.0598 483.058 80.6257V90.7039C483.058 122.198 472.563 143.523 452.147 154.859ZM433.638 246.008V246V216.223C433.638 203.568 430.992 194.386 426.018 188.362C421.029 182.32 413.765 179.533 404.72 179.533C395.675 179.533 388.41 182.32 383.422 188.362C378.447 194.386 375.801 203.568 375.801 216.223V246C375.801 260.261 378.907 269.457 384.128 275.086C389.358 280.724 396.623 282.69 404.72 282.69C412.818 282.69 419.969 280.723 425.142 275.084C430.303 269.457 433.408 260.264 433.638 246.008ZM195.443 135.14C195.443 146.654 197.976 154.7 202.618 159.868C207.27 165.046 213.96 167.249 222.07 167.249C230.179 167.249 236.869 165.046 241.521 159.868C246.163 154.7 248.696 146.654 248.696 135.14V77.419C248.696 65.9048 246.163 57.9707 241.517 52.9158C236.863 47.8518 230.172 45.7681 222.07 45.7681C213.967 45.7681 207.277 47.8518 202.622 52.9158C197.976 57.9707 195.443 65.9048 195.443 77.419V135.14ZM404.72 45.31C396.623 45.31 389.357 47.2762 384.126 52.9733C378.906 58.6598 375.801 67.9699 375.801 82.4581V100.324C375.801 113.219 378.796 121.842 383.961 127.24C389.132 132.642 396.392 134.723 404.72 134.723C412.822 134.723 420.079 132.64 425.304 127.242C430.527 121.846 433.638 113.223 433.638 100.324V82.4581C433.638 67.9699 430.534 58.6598 425.313 52.9733C420.083 47.2762 412.817 45.31 404.72 45.31ZM586.453 45.31C578.344 45.31 571.654 47.5122 567.002 52.691C562.36 57.859 559.827 65.9043 559.827 77.419V250.581C559.827 262.096 562.36 270.141 567.002 275.309C571.654 280.488 578.344 282.69 586.453 282.69C594.563 282.69 601.253 280.488 605.905 275.309C610.547 270.141 613.08 262.096 613.08 250.581V77.419C613.08 65.9043 610.547 57.859 605.905 52.691C601.253 47.5122 594.563 45.31 586.453 45.31ZM586.453 327.5C561.801 327.5 542.811 320.202 529.98 306.584C517.145 292.962 510.407 272.944 510.407 247.374V80.6257C510.407 55.0556 517.145 35.0381 529.98 21.4155C542.811 7.79756 561.801 0.5 586.453 0.5C611.106 0.5 630.096 7.79756 642.927 21.4155C655.762 35.0381 662.5 55.0556 662.5 80.6257V247.374C662.5 272.944 655.762 292.962 642.927 306.584C630.096 320.202 611.106 327.5 586.453 327.5Z" stroke="white"/>
</svg>
