<svg width="40" height="40" viewBox="0 0 40 40" fill="none" xmlns="http://www.w3.org/2000/svg">
<path d="M5.83301 6.24968C5.83301 6.01956 6.01956 5.83301 6.24967 5.83301H28.7497C28.9798 5.83301 29.1663 6.01956 29.1663 6.24968V22.9163C29.1663 23.6067 29.726 24.1663 30.4163 24.1663C31.1067 24.1663 31.6663 23.6067 31.6663 22.9163V6.24968C31.6663 4.63884 30.3605 3.33301 28.7497 3.33301H6.24967C4.63884 3.33301 3.33301 4.63884 3.33301 6.24968V33.7497C3.33301 35.3605 4.63884 36.6663 6.24967 36.6663H17.9163C18.6067 36.6663 19.1663 36.1067 19.1663 35.4163C19.1663 34.726 18.6067 34.1663 17.9163 34.1663H6.24967C6.01956 34.1663 5.83301 33.9798 5.83301 33.7497V6.24968Z" fill="#FF3737"/>
<path d="M10.4163 11.6663C9.72599 11.6663 9.16634 12.226 9.16634 12.9163C9.16634 13.6067 9.72599 14.1663 10.4163 14.1663H24.583C25.2734 14.1663 25.833 13.6067 25.833 12.9163C25.833 12.226 25.2734 11.6663 24.583 11.6663H10.4163Z" fill="#FF3737"/>
<path d="M9.16634 19.583C9.16634 18.8927 9.72599 18.333 10.4163 18.333H17.9163C18.6067 18.333 19.1663 18.8927 19.1663 19.583C19.1663 20.2734 18.6067 20.833 17.9163 20.833H10.4163C9.72599 20.833 9.16634 20.2734 9.16634 19.583Z" fill="#FF3737"/>
<path d="M36.3002 27.1336C36.7884 26.6454 36.7884 25.854 36.3002 25.3658C35.8121 24.8776 35.0206 24.8776 34.5325 25.3658L26.2497 33.6486L22.9669 30.3658C22.4787 29.8776 21.6873 29.8776 21.1991 30.3658C20.711 30.854 20.711 31.6454 21.1991 32.1336L25.3658 36.3002C25.8539 36.7884 26.6454 36.7884 27.1336 36.3002L36.3002 27.1336Z" fill="#FF3737"/>
</svg>
