<svg width="40" height="40" viewBox="0 0 40 40" fill="none" xmlns="http://www.w3.org/2000/svg">
<path d="M12.0833 20.0003C11.393 20.0003 10.8333 20.56 10.8333 21.2503C10.8333 21.9407 11.393 22.5003 12.0833 22.5003H12.9167C13.607 22.5003 14.1667 21.9407 14.1667 21.2503C14.1667 20.56 13.607 20.0003 12.9167 20.0003H12.0833Z" fill="#FF3737"/>
<path d="M10.8333 15.417C10.8333 14.7266 11.393 14.167 12.0833 14.167H12.9167C13.607 14.167 14.1667 14.7266 14.1667 15.417C14.1667 16.1073 13.607 16.667 12.9167 16.667H12.0833C11.393 16.667 10.8333 16.1073 10.8333 15.417Z" fill="#FF3737"/>
<path d="M12.0833 8.33366C11.393 8.33366 10.8333 8.8933 10.8333 9.58366C10.8333 10.274 11.393 10.8337 12.0833 10.8337H12.9167C13.607 10.8337 14.1667 10.274 14.1667 9.58366C14.1667 8.8933 13.607 8.33366 12.9167 8.33366H12.0833Z" fill="#FF3737"/>
<path d="M16.6667 21.2503C16.6667 20.56 17.2263 20.0003 17.9167 20.0003H18.75C19.4404 20.0003 20 20.56 20 21.2503C20 21.9407 19.4404 22.5003 18.75 22.5003H17.9167C17.2263 22.5003 16.6667 21.9407 16.6667 21.2503Z" fill="#FF3737"/>
<path d="M17.9167 14.167C17.2263 14.167 16.6667 14.7266 16.6667 15.417C16.6667 16.1073 17.2263 16.667 17.9167 16.667H18.75C19.4404 16.667 20 16.1073 20 15.417C20 14.7266 19.4404 14.167 18.75 14.167H17.9167Z" fill="#FF3737"/>
<path d="M16.6667 9.58366C16.6667 8.8933 17.2263 8.33366 17.9167 8.33366H18.75C19.4404 8.33366 20 8.8933 20 9.58366C20 10.274 19.4404 10.8337 18.75 10.8337H17.9167C17.2263 10.8337 16.6667 10.274 16.6667 9.58366Z" fill="#FF3737"/>
<path d="M23.75 20.0003C23.0596 20.0003 22.5 20.56 22.5 21.2503C22.5 21.9407 23.0596 22.5003 23.75 22.5003H24.5833C25.2737 22.5003 25.8333 21.9407 25.8333 21.2503C25.8333 20.56 25.2737 20.0003 24.5833 20.0003H23.75Z" fill="#FF3737"/>
<path d="M22.5 15.417C22.5 14.7266 23.0596 14.167 23.75 14.167H24.5833C25.2737 14.167 25.8333 14.7266 25.8333 15.417C25.8333 16.1073 25.2737 16.667 24.5833 16.667H23.75C23.0596 16.667 22.5 16.1073 22.5 15.417Z" fill="#FF3737"/>
<path d="M23.75 8.33366C23.0596 8.33366 22.5 8.8933 22.5 9.58366C22.5 10.274 23.0596 10.8337 23.75 10.8337H24.5833C25.2737 10.8337 25.8333 10.274 25.8333 9.58366C25.8333 8.8933 25.2737 8.33366 24.5833 8.33366H23.75Z" fill="#FF3737"/>
<path fill-rule="evenodd" clip-rule="evenodd" d="M5 33.3337C5 35.1746 6.49238 36.667 8.33333 36.667H14.5833C15.2737 36.667 15.8333 36.1073 15.8333 35.417V31.667H20.8333V35.417C20.8333 36.1073 21.393 36.667 22.0833 36.667H28.3333C28.4871 36.667 28.6385 36.6566 28.7867 36.6364C28.8754 36.6564 28.9677 36.667 29.0625 36.667H35.8338C37.6751 36.667 39.1667 35.1742 39.1667 33.3336V20.6253C39.1667 19.5761 38.6727 18.5881 37.8333 17.9586L36.1667 16.7086C35.6144 16.2944 34.8309 16.4063 34.4167 16.9586C34.0025 17.5109 34.1144 18.2944 34.6667 18.7086L36.3333 19.9586C36.5432 20.116 36.6667 20.363 36.6667 20.6253V33.3336C36.6667 33.7942 36.2937 34.167 35.8338 34.167H31.5617C31.6302 33.9006 31.6667 33.6214 31.6667 33.3337V5.00033C31.6667 3.15938 30.1743 1.66699 28.3333 1.66699H8.33333C6.49238 1.66699 5 3.15938 5 5.00033V33.3337ZM8.33333 34.167C7.8731 34.167 7.5 33.7939 7.5 33.3337V5.00033C7.5 4.54009 7.8731 4.16699 8.33333 4.16699H28.3333C28.7936 4.16699 29.1667 4.54009 29.1667 5.00033V33.3337C29.1667 33.7939 28.7936 34.167 28.3333 34.167H23.3333V30.417C23.3333 29.7266 22.7737 29.167 22.0833 29.167H14.5833C13.893 29.167 13.3333 29.7266 13.3333 30.417V34.167H8.33333Z" fill="#FF3737"/>
</svg>
