<svg width="25" height="25" viewBox="0 0 25 25" fill="none" xmlns="http://www.w3.org/2000/svg">
<circle cx="12.5" cy="12.5" r="11.75" stroke="#FF3737" stroke-width="1.5"/>
<path d="M9.32362 11.4138C8.37001 11.4138 7.57767 11.1034 6.9466 10.4828C6.31553 9.86207 6 9.10345 6 8.2069C6 7.32414 6.31553 6.57241 6.9466 5.95172C7.59169 5.31724 8.38403 5 9.32362 5C10.2772 5 11.0696 5.31034 11.7006 5.93103C12.3317 6.55172 12.6472 7.31035 12.6472 8.2069C12.6472 9.10345 12.3317 9.86207 11.7006 10.4828C11.0836 11.1034 10.2913 11.4138 9.32362 11.4138ZM8.10356 9.42759C8.42611 9.74483 8.83279 9.90345 9.32362 9.90345C9.81446 9.90345 10.2141 9.73793 10.5227 9.4069C10.8452 9.07586 11.0065 8.67586 11.0065 8.2069C11.0065 7.73793 10.8452 7.34483 10.5227 7.02759C10.2141 6.69655 9.81446 6.53103 9.32362 6.53103C8.83279 6.53103 8.42611 6.69655 8.10356 7.02759C7.79504 7.34483 7.64078 7.73793 7.64078 8.2069C7.64078 8.68966 7.79504 9.09655 8.10356 9.42759ZM6.98867 17.7034L16.7702 6.94483L17.801 7.50345L7.99838 18.2828L6.98867 17.7034ZM18.0534 19.069C17.4223 19.6897 16.63 20 15.6764 20C14.7228 20 13.9304 19.6897 13.2994 19.069C12.6683 18.4483 12.3528 17.6897 12.3528 16.7931C12.3528 15.8966 12.6683 15.1379 13.2994 14.5172C13.9304 13.8966 14.7228 13.5862 15.6764 13.5862C16.63 13.5862 17.4223 13.8966 18.0534 14.5172C18.6845 15.1379 19 15.8966 19 16.7931C19 17.6897 18.6845 18.4483 18.0534 19.069ZM14.4563 17.9931C14.7789 18.3103 15.1855 18.469 15.6764 18.469C16.1672 18.469 16.5669 18.3103 16.8754 17.9931C17.198 17.6621 17.3592 17.2621 17.3592 16.7931C17.3592 16.3241 17.198 15.931 16.8754 15.6138C16.5669 15.2828 16.1672 15.1172 15.6764 15.1172C15.1855 15.1172 14.7789 15.2828 14.4563 15.6138C14.1478 15.931 13.9935 16.3241 13.9935 16.7931C13.9935 17.2621 14.1478 17.6621 14.4563 17.9931Z" fill="#FF3737"/>
</svg>
