<svg width="18" height="18" viewBox="0 0 18 18" fill="none" xmlns="http://www.w3.org/2000/svg">
<path d="M3.67846 11L2.87846 15.4C2.77846 15.9 2.97846 16.5 3.47846 16.8C3.97846 17.1 4.47846 17.2 4.97846 16.9L8.87846 14.8L12.7785 16.9C12.9785 17 13.1785 17.1 13.4785 17.1C13.7785 17.1 14.0785 17 14.3785 16.8C14.8785 16.5 15.0785 15.9 14.9785 15.4L14.1785 11L17.3785 7.9C17.7785 7.5 17.8785 6.9 17.7785 6.4C17.5785 5.9 17.1785 5.5 16.5785 5.4L12.1785 4.8L10.1785 0.799999C9.97846 0.299999 9.37846 0 8.87846 0C8.37846 0 7.77846 0.299999 7.57846 0.799999L5.57846 4.8L1.27846 5.4C0.678461 5.5 0.278461 5.9 0.0784607 6.4C-0.121539 6.9 0.0784622 7.5 0.478462 7.9L3.67846 11Z" fill="#FF3737"/>
</svg>
