<svg width="14" height="14" viewBox="0 0 14 14" fill="none" xmlns="http://www.w3.org/2000/svg">
<path fill-rule="evenodd" clip-rule="evenodd" d="M10.8115 9.6822L10.9541 9.47633C11.7731 8.29381 12.128 6.84988 11.9491 5.42074C11.7669 3.9653 11.0443 2.63151 9.9246 1.68392C8.80496 0.736336 7.37006 0.244177 5.90451 0.305062C4.43897 0.365947 3.04984 0.975429 2.01265 2.01262C0.975459 3.04981 0.365978 4.43894 0.305092 5.90448C0.244207 7.37003 0.736366 8.80493 1.68395 9.92457C2.63154 11.0442 3.96533 11.7668 5.42077 11.9491C6.84991 12.128 8.29384 11.7731 9.47636 10.9541L9.68223 10.8115L12.3367 13.466C12.4866 13.6158 12.6899 13.7 12.9018 13.7C13.1137 13.7 13.317 13.6158 13.4669 13.466C13.6164 13.3161 13.7 13.1133 13.7 12.9018C13.7 12.6903 13.6162 12.4874 13.4669 12.3375M13.4669 12.3375L10.8115 9.6822ZM3.67847 2.43611C4.41845 1.94168 5.28842 1.67777 6.17838 1.67777C6.76929 1.67777 7.35442 1.79416 7.90035 2.0203C8.44628 2.24643 8.94232 2.57787 9.36016 2.99571C9.778 3.41355 10.1094 3.90959 10.3356 4.45552C10.5617 5.00145 10.6781 5.58658 10.6781 6.17749C10.6781 7.06745 10.4142 7.93743 9.91976 8.6774C9.42532 9.41737 8.72256 9.99411 7.90035 10.3347C7.07813 10.6753 6.17339 10.7644 5.30053 10.5907C4.42767 10.4171 3.6259 9.98857 2.9966 9.35927C2.3673 8.72998 1.93875 7.9282 1.76513 7.05534C1.5915 6.18248 1.68061 5.27774 2.02119 4.45552C2.36176 3.63331 2.9385 2.93055 3.67847 2.43611Z" fill="#1A1A1A"/>
</svg>
