<svg width="141" height="58" viewBox="0 0 141 58" fill="none" xmlns="http://www.w3.org/2000/svg">
<path d="M40.2682 51.9323V24.2214H49.8542V18.8903H34.4102V51.9323H40.2682Z" fill="white"/>
<path d="M57.9059 27.4734C57.9059 24.8078 59.0775 23.7949 60.9415 23.7949C62.8054 23.7949 63.977 24.8078 63.977 27.4734V43.3493C63.977 46.0148 62.8054 47.0277 60.9415 47.0277C59.0775 47.0277 57.9059 46.0148 57.9059 43.3493V27.4734ZM52.0478 42.9761C52.0478 48.9469 55.1899 52.3588 60.9415 52.3588C66.693 52.3588 69.8351 48.9469 69.8351 42.9761V27.8465C69.8351 21.8757 66.693 18.4639 60.9415 18.4639C55.1899 18.4639 52.0478 21.8757 52.0478 27.8465V42.9761Z" fill="white"/>
<path d="M82.9453 18.8903H74.3179V51.9323H80.176V37.9116H82.9453C88.8033 37.9116 91.6791 34.6596 91.6791 28.6888V28.1131C91.6791 22.1423 88.8033 18.8903 82.9453 18.8903ZM82.9453 24.2214C84.8092 24.2214 85.821 25.0744 85.821 27.7399V29.062C85.821 31.7275 84.8092 32.5805 82.9453 32.5805H80.176V24.2214H82.9453Z" fill="white"/>
<path d="M101.564 27.4734C101.564 24.8078 102.736 23.7949 104.6 23.7949C106.464 23.7949 107.635 24.8078 107.635 27.4734V43.3493C107.635 46.0148 106.464 47.0277 104.6 47.0277C102.736 47.0277 101.564 46.0148 101.564 43.3493V27.4734ZM95.7063 42.9761C95.7063 48.9469 98.8483 52.3588 104.6 52.3588C110.351 52.3588 113.494 48.9469 113.494 42.9761V27.8465C113.494 21.8757 110.351 18.4639 104.6 18.4639C98.8483 18.4639 95.7063 21.8757 95.7063 27.8465V42.9761Z" fill="white"/>
<path d="M140.997 57.0701V46.7078H138.441V18.8903H122.038L120.707 41.8566C120.6 44.0423 120.281 45.4284 119.269 46.7078H116.979V57.0701H122.677V51.9323H135.192V57.0701H140.997ZM127.523 24.2214H132.476V46.7078H124.807C125.766 45.8015 126.299 44.5754 126.458 41.7499L127.523 24.2214Z" fill="white"/>
<path d="M12.1694 10.0712V47.8382V52.0346H21.4014V0L12.1694 10.0712Z" fill="white"/>
<path d="M0 33.1511V47.8382V52.0346H7.97304V22.6602L0 33.1511Z" fill="white"/>
</svg>
