<svg width="14" height="9" viewBox="0 0 14 9" fill="none" xmlns="http://www.w3.org/2000/svg">
<path d="M7.77412 6.36381C8.16464 6.75433 8.16464 7.3875 7.77412 7.77802C7.38359 8.16855 6.75043 8.16855 6.3599 7.77802L0.703049 2.12117C0.312525 1.73065 0.312525 1.09748 0.703049 0.706956C1.09357 0.316432 1.72674 0.316431 2.11726 0.706956L7.77412 6.36381Z" fill="#FF3737"/>
<path d="M7.77412 7.77802C7.38359 8.16855 6.75043 8.16855 6.3599 7.77802C5.96938 7.3875 5.96953 6.75467 6.36005 6.36415L12.0169 0.707293C12.4074 0.316769 13.0406 0.316769 13.4311 0.707293C13.8216 1.09782 13.8216 1.73098 13.4311 2.12151L7.77412 7.77802Z" fill="#FF3737"/>
</svg>
